<svg width="120" height="40" viewBox="0 0 120 40" fill="none" xmlns="http://www.w3.org/2000/svg">
<g clip-path="url(#clip0_249_374)">
<path d="M110.303 0.00013H9.70265C9.33595 0.00013 8.97365 0.00013 8.60792 0.00213C8.30177 0.00413 7.99806 0.00994 7.68897 0.01483C7.01748 0.0227318 6.34758 0.0818063 5.68507 0.19154C5.02349 0.303663 4.38264 0.515046 3.78419 0.81854C3.18647 1.1246 2.64031 1.5223 2.16554 1.9972C1.68827 2.47077 1.29043 3.01815 0.987319 3.61829C0.683369 4.21724 0.472609 4.85907 0.362319 5.52161C0.25098 6.18332 0.191067 6.85265 0.183119 7.52361C0.173839 7.83021 0.172859 8.13783 0.167969 8.44447V31.5587C0.172859 31.8692 0.173839 32.17 0.183119 32.4806C0.19107 33.1516 0.250982 33.8209 0.362319 34.4825C0.472305 35.1455 0.683077 35.7877 0.987319 36.3868C1.29029 36.985 1.68819 37.5302 2.16554 38.0011C2.63851 38.4781 3.18502 38.8761 3.78419 39.1798C4.38264 39.4841 5.02342 39.6968 5.68507 39.8106C6.34769 39.9195 7.01753 39.9786 7.68897 39.9874C7.99806 39.9942 8.30177 39.9981 8.60792 39.9981C8.97364 40.0001 9.33597 40.0001 9.70265 40.0001H110.303C110.662 40.0001 111.027 40.0001 111.387 39.9981C111.691 39.9981 112.004 39.9942 112.309 39.9874C112.979 39.9791 113.647 39.92 114.309 39.8106C114.972 39.696 115.616 39.4834 116.217 39.1798C116.815 38.8759 117.361 38.478 117.834 38.0011C118.31 37.5284 118.709 36.9836 119.016 36.3868C119.318 35.7872 119.526 35.1451 119.635 34.4825C119.746 33.8208 119.808 33.1516 119.82 32.4806C119.824 32.17 119.824 31.8692 119.824 31.5587C119.832 31.1954 119.832 30.8341 119.832 30.4649V9.53626C119.832 9.17005 119.832 8.80677 119.824 8.44447C119.824 8.13783 119.824 7.83021 119.82 7.52357C119.808 6.85255 119.746 6.18337 119.635 5.52157C119.526 4.85941 119.317 4.21763 119.016 3.61825C118.398 2.41533 117.42 1.43616 116.217 0.81845C115.615 0.515697 114.972 0.30437 114.309 0.19145C113.648 0.0812328 112.979 0.0221378 112.309 0.01469C112.004 0.00981 111.691 0.00395 111.387 0.002C111.027 0 110.662 0.00013 110.303 0.00013Z" fill="black"/>
<path d="M8.61284 39.125C8.30816 39.125 8.01084 39.1211 7.70855 39.1143C7.08233 39.1061 6.45757 39.0516 5.83941 38.9512C5.263 38.8519 4.70461 38.6673 4.18267 38.4033C3.66551 38.1415 3.19382 37.7983 2.78567 37.3867C2.37161 36.98 2.02688 36.5082 1.76516 35.9902C1.50054 35.4688 1.31742 34.9099 1.22216 34.333C1.11928 33.7131 1.06362 33.0863 1.05566 32.458C1.04932 32.2471 1.04102 31.5449 1.04102 31.5449V8.44434C1.04102 8.44434 1.04986 7.75293 1.05571 7.5498C1.06333 6.92248 1.11867 6.29665 1.22124 5.67773C1.31667 5.09925 1.49994 4.53875 1.7647 4.01563C2.02546 3.49794 2.36827 3.02586 2.77984 2.61768C3.19094 2.20562 3.66414 1.8606 4.18218 1.59521C4.70292 1.33209 5.26025 1.14873 5.8355 1.05127C6.45569 0.949836 7.08262 0.894996 7.71101 0.88721L8.61333 0.875H111.382L112.295 0.8877C112.918 0.895099 113.539 0.94945 114.153 1.05029C114.734 1.14898 115.298 1.33362 115.824 1.59814C116.862 2.13299 117.707 2.97916 118.239 4.01807C118.5 4.53758 118.68 5.09351 118.774 5.66699C118.878 6.29099 118.936 6.92174 118.948 7.5542C118.951 7.8374 118.951 8.1416 118.951 8.44434C118.959 8.81934 118.959 9.17627 118.959 9.53613V30.4648C118.959 30.8281 118.959 31.1826 118.951 31.54C118.951 31.8652 118.951 32.1631 118.947 32.4697C118.936 33.0909 118.878 33.7104 118.776 34.3232C118.683 34.9043 118.501 35.4675 118.236 35.9932C117.973 36.5056 117.63 36.9733 117.221 37.3789C116.812 37.7927 116.34 38.1379 115.821 38.4014C115.296 38.6674 114.734 38.8527 114.153 38.9512C113.535 39.0522 112.91 39.1067 112.284 39.1143C111.991 39.1211 111.685 39.125 111.387 39.125L110.303 39.127L8.61284 39.125Z" fill="white"/>
<path d="M25.165 19.8891C25.1762 19.0211 25.4067 18.1701 25.8352 17.4152C26.2637 16.6603 26.8761 16.026 27.6156 15.5714C27.1458 14.9005 26.5261 14.3483 25.8056 13.9589C25.0852 13.5694 24.2838 13.3532 23.4652 13.3276C21.719 13.1443 20.0261 14.3725 19.1362 14.3725C18.2291 14.3725 16.8591 13.3458 15.3837 13.3762C14.4294 13.407 13.4994 13.6845 12.6843 14.1816C11.8691 14.6788 11.1966 15.3786 10.7324 16.2129C8.72124 19.6949 10.2214 24.8123 12.1479 27.6269C13.1117 29.0051 14.2382 30.5446 15.7122 30.49C17.1546 30.4302 17.6934 29.5702 19.4344 29.5702C21.1594 29.5702 21.6648 30.49 23.1687 30.4553C24.7165 30.4302 25.6916 29.0709 26.6217 27.6797C27.3143 26.6976 27.8472 25.6123 28.2007 24.4638C27.3015 24.0835 26.5341 23.4469 25.9943 22.6333C25.4545 21.8198 25.166 20.8654 25.165 19.8891Z" fill="black"/>
<path d="M22.3243 11.4766C23.1682 10.4635 23.584 9.16135 23.4833 7.84668C22.194 7.98209 21.0031 8.59829 20.1478 9.5725C19.7296 10.0484 19.4093 10.6021 19.2052 11.2019C19.0011 11.8017 18.9173 12.4358 18.9584 13.068C19.6033 13.0746 20.2413 12.9349 20.8243 12.6592C21.4073 12.3835 21.9202 11.9792 22.3243 11.4766Z" fill="black"/>
<path d="M42.4697 27.1392H37.7363L36.5996 30.4956H34.5947L39.0781 18.0776H41.1611L45.6445 30.4956H43.6055L42.4697 27.1392ZM38.2266 25.5904H41.9786L40.1289 20.1431H40.0771L38.2266 25.5904Z" fill="black"/>
<path d="M55.3272 25.9693C55.3272 28.7828 53.8213 30.5904 51.5489 30.5904C50.9732 30.6205 50.4007 30.4879 49.8969 30.2078C49.3931 29.9277 48.9784 29.5113 48.7002 29.0064H48.6572V33.4908H46.7988V21.442H48.5977V22.9478H48.6318C48.9228 22.4454 49.3445 22.0312 49.8521 21.7493C50.3598 21.4675 50.9343 21.3285 51.5146 21.3473C53.8125 21.3473 55.3272 23.1637 55.3272 25.9693ZM53.417 25.9693C53.417 24.1363 52.4697 22.9312 51.0244 22.9312C49.6045 22.9312 48.6494 24.1617 48.6494 25.9693C48.6494 27.7935 49.6045 29.0152 51.0244 29.0152C52.4698 29.0152 53.417 27.8189 53.417 25.9693Z" fill="black"/>
<path d="M65.2925 25.9693C65.2925 28.7828 63.7862 30.5904 61.5137 30.5904C60.938 30.6205 60.3655 30.4879 59.8618 30.2078C59.358 29.9277 58.9432 29.5113 58.6651 29.0064H58.6221V33.4908H56.7637V21.442H58.5625V22.9478H58.5967C58.8876 22.4454 59.3094 22.0312 59.817 21.7493C60.3246 21.4675 60.8992 21.3285 61.4795 21.3473C63.7774 21.3473 65.2925 23.1637 65.2925 25.9693ZM63.3819 25.9693C63.3819 24.1363 62.4346 22.9312 60.9893 22.9312C59.5694 22.9312 58.6143 24.1617 58.6143 25.9693C58.6143 27.7935 59.5694 29.0152 60.9893 29.0152C62.4346 29.0152 63.3819 27.8189 63.3819 25.9693Z" fill="black"/>
<path d="M71.877 27.0357C72.0147 28.2671 73.211 29.0757 74.8457 29.0757C76.4122 29.0757 77.5391 28.2671 77.5391 27.1567C77.5391 26.1929 76.8594 25.6157 75.2501 25.2202L73.6407 24.8325C71.3604 24.2817 70.3018 23.2153 70.3018 21.4849C70.3018 19.3423 72.169 17.8706 74.8194 17.8706C77.4444 17.8706 79.2432 19.3423 79.3038 21.4849H77.4278C77.3155 20.2456 76.2911 19.4976 74.794 19.4976C73.2969 19.4976 72.2725 20.2544 72.2725 21.356C72.2725 22.2339 72.9268 22.7505 74.5274 23.146L75.8955 23.4819C78.4434 24.0844 79.501 25.1079 79.501 26.9243C79.501 29.2475 77.6514 30.7026 74.708 30.7026C71.9541 30.7026 70.0947 29.2817 69.9746 27.0356L71.877 27.0357Z" fill="black"/>
<path d="M83.5137 19.2993V21.4419H85.2353V22.9136H83.5137V27.9048C83.5137 28.6802 83.8584 29.0415 84.6152 29.0415C84.8196 29.0379 85.0237 29.0236 85.2266 28.9985V30.4614C84.8863 30.525 84.5404 30.5538 84.1943 30.5473C82.3613 30.5473 81.6465 29.8589 81.6465 28.103V22.9136H80.3301V21.4419H81.6465V19.2993H83.5137Z" fill="black"/>
<path d="M86.2324 25.9692C86.2324 23.1206 87.9101 21.3306 90.5264 21.3306C93.1514 21.3306 94.8213 23.1206 94.8213 25.9692C94.8213 28.8257 93.1602 30.6079 90.5264 30.6079C87.8935 30.6079 86.2324 28.8257 86.2324 25.9692ZM92.9277 25.9692C92.9277 24.0151 92.0322 22.8618 90.5264 22.8618C89.0205 22.8618 88.125 24.0239 88.125 25.9692C88.125 27.9311 89.0205 29.0757 90.5264 29.0757C92.0322 29.0757 92.9277 27.9311 92.9277 25.9692Z" fill="black"/>
<path d="M96.3526 21.442H98.125V22.983H98.168C98.2879 22.5017 98.5699 22.0764 98.9665 21.7785C99.3631 21.4806 99.8501 21.3284 100.346 21.3473C100.56 21.3465 100.773 21.3698 100.982 21.4166V23.1549C100.712 23.0723 100.43 23.0343 100.147 23.0426C99.8775 23.0316 99.6083 23.0792 99.3585 23.1821C99.1086 23.285 98.884 23.4408 98.7001 23.6386C98.5161 23.8365 98.3771 24.0719 98.2927 24.3286C98.2083 24.5852 98.1804 24.8571 98.2109 25.1256V30.4957H96.3525L96.3526 21.442Z" fill="black"/>
<path d="M109.552 27.8364C109.302 29.48 107.701 30.6079 105.653 30.6079C103.02 30.6079 101.385 28.8433 101.385 26.0122C101.385 23.1724 103.028 21.3306 105.575 21.3306C108.08 21.3306 109.655 23.0513 109.655 25.7964V26.4331H103.261V26.5454C103.231 26.8786 103.273 27.2143 103.383 27.5301C103.493 27.846 103.669 28.1347 103.9 28.3773C104.13 28.6198 104.409 28.8106 104.719 28.9369C105.029 29.0632 105.362 29.1222 105.696 29.1099C106.135 29.151 106.576 29.0493 106.953 28.8199C107.33 28.5904 107.622 28.2455 107.787 27.8364L109.552 27.8364ZM103.27 25.1343H107.796C107.813 24.8347 107.767 24.5349 107.662 24.2537C107.558 23.9725 107.396 23.7159 107.188 23.5001C106.979 23.2844 106.728 23.114 106.451 22.9998C106.173 22.8856 105.875 22.83 105.575 22.8364C105.273 22.8346 104.973 22.8928 104.693 23.0075C104.412 23.1222 104.158 23.2913 103.944 23.5049C103.729 23.7186 103.559 23.9726 103.444 24.2522C103.328 24.5319 103.269 24.8316 103.27 25.1343Z" fill="black"/>
<path d="M37.9941 8.73101C38.3838 8.70305 38.7747 8.76191 39.1388 8.90335C39.5029 9.04478 39.8311 9.26526 40.0997 9.54889C40.3683 9.83251 40.5706 10.1722 40.692 10.5435C40.8134 10.9148 40.8509 11.3083 40.8018 11.6959C40.8018 13.6021 39.7715 14.6979 37.9941 14.6979H35.8389V8.73101H37.9941ZM36.7656 13.854H37.8906C38.169 13.8707 38.4476 13.825 38.7062 13.7204C38.9647 13.6158 39.1967 13.4548 39.3852 13.2493C39.5737 13.0437 39.7139 12.7987 39.7958 12.5321C39.8777 12.2655 39.899 11.9839 39.8584 11.708C39.8961 11.4332 39.8725 11.1534 39.7894 10.8887C39.7063 10.6241 39.5657 10.3811 39.3776 10.1771C39.1896 9.97322 38.9587 9.81341 38.7016 9.70917C38.4445 9.60494 38.1676 9.55885 37.8906 9.57422H36.7656V13.854Z" fill="black"/>
<path d="M41.8489 12.4443C41.8206 12.1484 41.8545 11.8498 41.9483 11.5677C42.0421 11.2857 42.1939 11.0263 42.3938 10.8063C42.5938 10.5864 42.8375 10.4106 43.1093 10.2903C43.3812 10.17 43.6752 10.1079 43.9724 10.1079C44.2697 10.1079 44.5637 10.17 44.8356 10.2903C45.1074 10.4106 45.3511 10.5864 45.5511 10.8063C45.751 11.0263 45.9028 11.2857 45.9966 11.5677C46.0904 11.8498 46.1243 12.1484 46.096 12.4443C46.1248 12.7405 46.0914 13.0395 45.9978 13.322C45.9042 13.6045 45.7525 13.8644 45.5525 14.0848C45.3525 14.3052 45.1086 14.4813 44.8365 14.6019C44.5644 14.7224 44.2701 14.7847 43.9724 14.7847C43.6748 14.7847 43.3805 14.7224 43.1084 14.6019C42.8362 14.4813 42.5924 14.3052 42.3924 14.0848C42.1924 13.8644 42.0407 13.6045 41.9471 13.322C41.8535 13.0395 41.8201 12.7405 41.8489 12.4443ZM45.1819 12.4443C45.1819 11.4682 44.7434 10.8974 43.9739 10.8974C43.2015 10.8974 42.7669 11.4682 42.7669 12.4443C42.7669 13.4282 43.2015 13.9946 43.9739 13.9946C44.7435 13.9946 45.1819 13.4243 45.1819 12.4443Z" fill="black"/>
<path d="M51.7412 14.6978H50.8193L49.8887 11.3813H49.8184L48.8916 14.6978H47.9785L46.7373 10.1948H47.6387L48.4453 13.6308H48.5117L49.4375 10.1948H50.29L51.2158 13.6308H51.2861L52.0889 10.1948H52.9775L51.7412 14.6978Z" fill="black"/>
<path d="M54.0215 10.1949H54.877V10.9102H54.9434C55.056 10.6533 55.246 10.4379 55.4869 10.2941C55.7278 10.1503 56.0075 10.0852 56.2871 10.1079C56.5062 10.0915 56.7262 10.1245 56.9308 10.2046C57.1354 10.2847 57.3194 10.4098 57.469 10.5707C57.6187 10.7315 57.7303 10.924 57.7955 11.1338C57.8607 11.3436 57.8779 11.5654 57.8457 11.7827V14.6977H56.957V12.0059C56.957 11.2823 56.6426 10.9224 55.9854 10.9224C55.8366 10.9155 55.6881 10.9408 55.55 10.9966C55.412 11.0525 55.2876 11.1375 55.1855 11.2459C55.0834 11.3543 55.0059 11.4834 54.9584 11.6246C54.9108 11.7657 54.8944 11.9154 54.9102 12.0635V14.6978H54.0215L54.0215 10.1949Z" fill="black"/>
<path d="M59.2617 8.43701H60.1504V14.6978H59.2617V8.43701Z" fill="black"/>
<path d="M61.386 12.4444C61.3577 12.1484 61.3916 11.8499 61.4854 11.5678C61.5793 11.2857 61.7311 11.0263 61.9311 10.8064C62.131 10.5864 62.3747 10.4106 62.6466 10.2903C62.9185 10.17 63.2125 10.1079 63.5098 10.1079C63.8071 10.1079 64.1011 10.17 64.3729 10.2903C64.6448 10.4106 64.8885 10.5864 65.0885 10.8064C65.2885 11.0263 65.4402 11.2857 65.5341 11.5678C65.628 11.8499 65.6618 12.1484 65.6336 12.4444C65.6624 12.7406 65.6289 13.0396 65.5353 13.3221C65.4416 13.6046 65.29 13.8645 65.0899 14.0849C64.8899 14.3053 64.646 14.4814 64.3739 14.6019C64.1017 14.7225 63.8074 14.7847 63.5098 14.7847C63.2121 14.7847 62.9178 14.7225 62.6457 14.6019C62.3735 14.4814 62.1296 14.3053 61.9296 14.0849C61.7296 13.8645 61.5779 13.6046 61.4843 13.3221C61.3907 13.0396 61.3572 12.7406 61.386 12.4444ZM64.719 12.4444C64.719 11.4683 64.2805 10.8975 63.511 10.8975C62.7385 10.8975 62.304 11.4683 62.304 12.4444C62.304 13.4283 62.7386 13.9947 63.511 13.9947C64.2805 13.9947 64.719 13.4244 64.719 12.4444Z" fill="black"/>
<path d="M66.5684 13.4243C66.5684 12.6138 67.1719 12.1465 68.2432 12.0801L69.4629 12.0098V11.6211C69.4629 11.1455 69.1484 10.877 68.541 10.877C68.0449 10.877 67.7012 11.0591 67.6025 11.3774H66.7422C66.833 10.604 67.5606 10.1079 68.582 10.1079C69.7109 10.1079 70.3477 10.6699 70.3477 11.6211V14.6978H69.4922V14.0649H69.4219C69.2792 14.2919 69.0788 14.477 68.8411 14.6012C68.6035 14.7254 68.3372 14.7843 68.0693 14.7719C67.8803 14.7916 67.6892 14.7714 67.5085 14.7127C67.3277 14.654 67.1613 14.5581 67.0199 14.4311C66.8784 14.3042 66.7652 14.149 66.6874 13.9756C66.6097 13.8021 66.5691 13.6144 66.5684 13.4243ZM69.4629 13.0395V12.6631L68.3633 12.7334C67.7432 12.7749 67.4619 12.9858 67.4619 13.3828C67.4619 13.7881 67.8135 14.0239 68.2969 14.0239C68.4386 14.0382 68.5816 14.0239 68.7176 13.9819C68.8536 13.9398 68.9798 13.8707 69.0886 13.7789C69.1974 13.6871 69.2866 13.5743 69.3509 13.4473C69.4152 13.3202 69.4533 13.1816 69.4629 13.0395Z" fill="black"/>
<path d="M71.5156 12.4444C71.5156 11.0215 72.2471 10.1201 73.3848 10.1201C73.6662 10.1072 73.9455 10.1746 74.19 10.3145C74.4345 10.4544 74.6342 10.661 74.7656 10.9101H74.832V8.43701H75.7207V14.6978H74.8691V13.9863H74.7988C74.6572 14.2338 74.4506 14.4378 74.2014 14.5763C73.9521 14.7148 73.6697 14.7825 73.3848 14.772C72.2393 14.772 71.5156 13.8706 71.5156 12.4444ZM72.4336 12.4444C72.4336 13.3994 72.8838 13.9741 73.6368 13.9741C74.3858 13.9741 74.8487 13.3911 74.8487 12.4483C74.8487 11.5098 74.3809 10.9185 73.6368 10.9185C72.8887 10.9185 72.4336 11.4971 72.4336 12.4444Z" fill="black"/>
<path d="M79.3977 12.4444C79.3694 12.1485 79.4033 11.8499 79.4971 11.5679C79.591 11.2858 79.7427 11.0264 79.9427 10.8065C80.1426 10.5865 80.3863 10.4107 80.6582 10.2904C80.93 10.1702 81.224 10.108 81.5213 10.108C81.8185 10.108 82.1125 10.1702 82.3844 10.2904C82.6562 10.4107 82.8999 10.5865 83.0999 10.8065C83.2998 11.0264 83.4516 11.2858 83.5454 11.5679C83.6393 11.8499 83.6731 12.1485 83.6448 12.4444C83.6737 12.7406 83.6402 13.0396 83.5466 13.3221C83.453 13.6047 83.3014 13.8645 83.1014 14.0849C82.9014 14.3053 82.6575 14.4814 82.3854 14.602C82.1132 14.7225 81.8189 14.7848 81.5213 14.7848C81.2237 14.7848 80.9293 14.7225 80.6572 14.602C80.3851 14.4814 80.1412 14.3053 79.9412 14.0849C79.7412 13.8645 79.5895 13.6047 79.4959 13.3221C79.4023 13.0396 79.3689 12.7406 79.3977 12.4444ZM82.7307 12.4444C82.7307 11.4683 82.2923 10.8975 81.5227 10.8975C80.7503 10.8975 80.3157 11.4683 80.3157 12.4444C80.3157 13.4283 80.7503 13.9947 81.5227 13.9947C82.2923 13.9947 82.7307 13.4244 82.7307 12.4444Z" fill="black"/>
<path d="M84.8369 10.1949H85.6924V10.9102H85.7588C85.8715 10.6533 86.0615 10.4379 86.3023 10.2941C86.5432 10.1503 86.8229 10.0852 87.1025 10.1079C87.3216 10.0915 87.5416 10.1245 87.7462 10.2046C87.9508 10.2847 88.1348 10.4098 88.2845 10.5707C88.4342 10.7315 88.5457 10.924 88.6109 11.1338C88.6761 11.3436 88.6933 11.5654 88.6611 11.7827V14.6977H87.7725V12.0059C87.7725 11.2823 87.458 10.9224 86.8008 10.9224C86.652 10.9155 86.5035 10.9408 86.3655 10.9966C86.2274 11.0525 86.1031 11.1375 86.0009 11.2459C85.8988 11.3543 85.8213 11.4834 85.7738 11.6246C85.7263 11.7657 85.7098 11.9154 85.7256 12.0635V14.6978H84.8369V10.1949Z" fill="black"/>
<path d="M93.6826 9.07373V10.2153H94.6582V10.9639H93.6826V13.2793C93.6826 13.751 93.877 13.9575 94.3193 13.9575C94.4326 13.9572 94.5457 13.9503 94.6582 13.937V14.6772C94.4986 14.7058 94.3369 14.721 94.1748 14.7226C93.1865 14.7226 92.793 14.375 92.793 13.5068V10.9638H92.0781V10.2153H92.793V9.07373H93.6826Z" fill="black"/>
<path d="M95.873 8.43701H96.7539V10.9185H96.8242C96.9423 10.6591 97.1376 10.4425 97.3833 10.2982C97.629 10.1539 97.9132 10.0888 98.1972 10.1118C98.4152 10.1 98.6331 10.1364 98.8353 10.2184C99.0376 10.3004 99.2193 10.4261 99.3674 10.5864C99.5155 10.7468 99.6265 10.9378 99.6922 11.146C99.758 11.3541 99.7771 11.5742 99.748 11.7905V14.6978H98.8584V12.0098C98.8584 11.2905 98.5234 10.9263 97.8955 10.9263C97.7428 10.9137 97.5892 10.9347 97.4454 10.9878C97.3016 11.0408 97.1712 11.1247 97.0632 11.2334C96.9552 11.3421 96.8723 11.4732 96.8202 11.6173C96.7681 11.7614 96.7482 11.9152 96.7618 12.0679V14.6977H95.8731L95.873 8.43701Z" fill="black"/>
<path d="M104.929 13.4819C104.809 13.8934 104.547 14.2494 104.19 14.4876C103.834 14.7257 103.405 14.8309 102.978 14.7846C102.682 14.7924 102.387 14.7356 102.114 14.6181C101.842 14.5006 101.598 14.3251 101.4 14.104C101.202 13.8829 101.055 13.6213 100.968 13.3375C100.881 13.0537 100.858 12.7544 100.898 12.4604C100.859 12.1655 100.883 11.8656 100.969 11.5809C101.056 11.2962 101.203 11.0335 101.399 10.8104C101.596 10.5873 101.839 10.4092 102.11 10.2879C102.382 10.1667 102.677 10.1053 102.974 10.1079C104.227 10.1079 104.983 10.9639 104.983 12.3779V12.688H101.803V12.7378C101.789 12.903 101.81 13.0693 101.864 13.2261C101.918 13.3828 102.005 13.5265 102.118 13.648C102.231 13.7694 102.368 13.866 102.52 13.9314C102.672 13.9968 102.837 14.0296 103.003 14.0278C103.215 14.0533 103.431 14.015 103.621 13.9178C103.812 13.8206 103.97 13.6688 104.074 13.4819L104.929 13.4819ZM101.803 12.0307H104.078C104.089 11.8796 104.068 11.7278 104.017 11.5851C103.967 11.4423 103.886 11.3119 103.782 11.202C103.677 11.0922 103.551 11.0053 103.411 10.9472C103.271 10.889 103.121 10.8607 102.969 10.8642C102.816 10.8623 102.663 10.8911 102.521 10.9491C102.378 11.007 102.249 11.0929 102.14 11.2016C102.032 11.3103 101.946 11.4397 101.888 11.5821C101.83 11.7245 101.801 11.877 101.803 12.0307Z" fill="black"/>
</g>
<defs>
<clipPath id="clip0_249_374">
<rect width="119.664" height="40" fill="white" transform="translate(0.167969)"/>
</clipPath>
</defs>
</svg>
